<svg xmlns="http://www.w3.org/2000/svg" width="335" height="280.28" viewBox="0 0 335 280.278">
  <path fill="#141006" d="M297 17.67c0 1.1-.9 2-2 2h-4.13c-1.1 0-2-.9-2-2v-4.13c0-1.1.9-2 2-2H295c1.1 0 2 .9 2 2v4.13zm-10 0c0 1.1-.9 2-2 2h-4.13c-1.1 0-2-.9-2-2v-4.13c0-1.1.9-2 2-2H285c1.1 0 2 .9 2 2v4.13zm-10 0c0 1.1-.9 2-2 2h-4.13c-1.1 0-2-.9-2-2v-4.13c0-1.1.9-2 2-2H275c1.1 0 2 .9 2 2v4.13zm-10 0c0 1.1-.9 2-2 2h-4.13c-1.1 0-2-.9-2-2v-4.13c0-1.1.9-2 2-2H265c1.1 0 2 .9 2 2v4.13zm-10 0c0 1.1-.9 2-2 2h-4.13c-1.1 0-2-.9-2-2v-4.13c0-1.1.9-2 2-2H255c1.1 0 2 .9 2 2v4.13zm-10 0c0 1.1-.9 2-2 2h-4.13c-1.1 0-2-.9-2-2v-4.13c0-1.1.9-2 2-2H245c1.1 0 2 .9 2 2v4.13zm-178.6 60c0 1.1-.9 2-2 2h-4.13c-1.1 0-2-.9-2-2v-4.13c0-1.1.9-2 2-2h4.13c1.1 0 2 .9 2 2v4.13zm158.6-60c0 1.1-.9 2-2 2h-4.13c-1.1 0-2-.9-2-2v-4.13c0-1.1.9-2 2-2H225c1.1 0 2 .9 2 2v4.13zm-10 0c0 1.1-.9 2-2 2h-4.13c-1.1 0-2-.9-2-2v-4.13c0-1.1.9-2 2-2H215c1.1 0 2 .9 2 2v4.13zm-10 0c0 1.1-.9 2-2 2h-4.13c-1.1 0-2-.9-2-2v-4.13c0-1.1.9-2 2-2H205c1.1 0 2 .9 2 2v4.13zm-10 0c0 1.1-.9 2-2 2h-4.13c-1.1 0-2-.9-2-2v-4.13c0-1.1.9-2 2-2H195c1.1 0 2 .9 2 2v4.13zm-10 0c0 1.1-.9 2-2 2h-4.13c-1.1 0-2-.9-2-2v-4.13c0-1.1.9-2 2-2H185c1.1 0 2 .9 2 2v4.13zm-10 0c0 1.1-.9 2-2 2h-4.13c-1.1 0-2-.9-2-2v-4.13c0-1.1.9-2 2-2H175c1.1 0 2 .9 2 2v4.13zm-10 0c0 1.1-.9 2-2 2h-4.13c-1.1 0-2-.9-2-2v-4.13c0-1.1.9-2 2-2H165c1.1 0 2 .9 2 2v4.13zm-10 0c0 1.1-.9 2-2 2h-4.13c-1.1 0-2-.9-2-2v-4.13c0-1.1.9-2 2-2H155c1.1 0 2 .9 2 2v4.13zm-10 0c0 1.1-.9 2-2 2h-4.13c-1.1 0-2-.9-2-2v-4.13c0-1.1.9-2 2-2H145c1.1 0 2 .9 2 2v4.13zm-10 0c0 1.1-.9 2-2 2h-4.13c-1.1 0-2-.9-2-2v-4.13c0-1.1.9-2 2-2H135c1.1 0 2 .9 2 2v4.13zm-10 0c0 1.1-.9 2-2 2h-4.13c-1.1 0-2-.9-2-2v-4.13c0-1.1.9-2 2-2H125c1.1 0 2 .9 2 2v4.13zm-10 0c0 1.1-.9 2-2 2h-4.13c-1.1 0-2-.9-2-2v-4.13c0-1.1.9-2 2-2H115c1.1 0 2 .9 2 2v4.13zm-10 0c0 1.1-.9 2-2 2h-4.13c-1.1 0-2-.9-2-2v-4.13c0-1.1.9-2 2-2H105c1.1 0 2 .9 2 2v4.13zm190 10c0 1.1-.9 2-2 2h-4.13c-1.1 0-2-.9-2-2v-4.13c0-1.1.9-2 2-2H295c1.1 0 2 .9 2 2v4.13zm-10 0c0 1.1-.9 2-2 2h-4.13c-1.1 0-2-.9-2-2v-4.13c0-1.1.9-2 2-2H285c1.1 0 2 .9 2 2v4.13zm-10 0c0 1.1-.9 2-2 2h-4.13c-1.1 0-2-.9-2-2v-4.13c0-1.1.9-2 2-2H275c1.1 0 2 .9 2 2v4.13zm-10 0c0 1.1-.9 2-2 2h-4.13c-1.1 0-2-.9-2-2v-4.13c0-1.1.9-2 2-2H265c1.1 0 2 .9 2 2v4.13zm-10 0c0 1.1-.9 2-2 2h-4.13c-1.1 0-2-.9-2-2v-4.13c0-1.1.9-2 2-2H255c1.1 0 2 .9 2 2v4.13zm-10 0c0 1.1-.9 2-2 2h-4.13c-1.1 0-2-.9-2-2v-4.13c0-1.1.9-2 2-2H245c1.1 0 2 .9 2 2v4.13zm-10 0c0 1.1-.9 2-2 2h-4.13c-1.1 0-2-.9-2-2v-4.13c0-1.1.9-2 2-2H235c1.1 0 2 .9 2 2v4.13zm-10 0c0 1.1-.9 2-2 2h-4.13c-1.1 0-2-.9-2-2v-4.13c0-1.1.9-2 2-2H225c1.1 0 2 .9 2 2v4.13zm-10 0c0 1.1-.9 2-2 2h-4.13c-1.1 0-2-.9-2-2v-4.13c0-1.1.9-2 2-2H215c1.1 0 2 .9 2 2v4.13zm-10 0c0 1.1-.9 2-2 2h-4.13c-1.1 0-2-.9-2-2v-4.13c0-1.1.9-2 2-2H205c1.1 0 2 .9 2 2v4.13zm-10 0c0 1.1-.9 2-2 2h-4.13c-1.1 0-2-.9-2-2v-4.13c0-1.1.9-2 2-2H195c1.1 0 2 .9 2 2v4.13zm-10 0c0 1.1-.9 2-2 2h-4.13c-1.1 0-2-.9-2-2v-4.13c0-1.1.9-2 2-2H185c1.1 0 2 .9 2 2v4.13zm-10 0c0 1.1-.9 2-2 2h-4.13c-1.1 0-2-.9-2-2v-4.13c0-1.1.9-2 2-2H175c1.1 0 2 .9 2 2v4.13zm-10 0c0 1.1-.9 2-2 2h-4.13c-1.1 0-2-.9-2-2v-4.13c0-1.1.9-2 2-2H165c1.1 0 2 .9 2 2v4.13zm-10 0c0 1.1-.9 2-2 2h-4.13c-1.1 0-2-.9-2-2v-4.13c0-1.1.9-2 2-2H155c1.1 0 2 .9 2 2v4.13zm-10 0c0 1.1-.9 2-2 2h-4.13c-1.1 0-2-.9-2-2v-4.13c0-1.1.9-2 2-2H145c1.1 0 2 .9 2 2v4.13zm-10 0c0 1.1-.9 2-2 2h-4.13c-1.1 0-2-.9-2-2v-4.13c0-1.1.9-2 2-2H135c1.1 0 2 .9 2 2v4.13zm-10 0c0 1.1-.9 2-2 2h-4.13c-1.1 0-2-.9-2-2v-4.13c0-1.1.9-2 2-2H125c1.1 0 2 .9 2 2v4.13zm-10 0c0 1.1-.9 2-2 2h-4.13c-1.1 0-2-.9-2-2v-4.13c0-1.1.9-2 2-2H115c1.1 0 2 .9 2 2v4.13zm-10 0c0 1.1-.9 2-2 2h-4.13c-1.1 0-2-.9-2-2v-4.13c0-1.1.9-2 2-2H105c1.1 0 2 .9 2 2v4.13zm190 90c0 1.1-.9 2-2 2h-4.13c-1.1 0-2-.9-2-2v-4.13c0-1.1.9-2 2-2H295c1.1 0 2 .9 2 2v4.13zm-10 0c0 1.1-.9 2-2 2h-4.13c-1.1 0-2-.9-2-2v-4.13c0-1.1.9-2 2-2H285c1.1 0 2 .9 2 2v4.13zm-10 0c0 1.1-.9 2-2 2h-4.13c-1.1 0-2-.9-2-2v-4.13c0-1.1.9-2 2-2H275c1.1 0 2 .9 2 2v4.13zm-10 0c0 1.1-.9 2-2 2h-4.13c-1.1 0-2-.9-2-2v-4.13c0-1.1.9-2 2-2H265c1.1 0 2 .9 2 2v4.13zm-10 0c0 1.1-.9 2-2 2h-4.13c-1.1 0-2-.9-2-2v-4.13c0-1.1.9-2 2-2H255c1.1 0 2 .9 2 2v4.13zM177.98 97.7c0 1.1-.9 2-2 2h-4.13c-1.1 0-2-.9-2-2v-4.13c0-1.1.9-2 2-2h4.13c1.1 0 2 .9 2 2v4.13zM237 117.67c0 1.1-.9 2-2 2h-4.13c-1.1 0-2-.9-2-2v-4.13c0-1.1.9-2 2-2H235c1.1 0 2 .9 2 2v4.13zm-10 0c0 1.1-.9 2-2 2h-4.13c-1.1 0-2-.9-2-2v-4.13c0-1.1.9-2 2-2H225c1.1 0 2 .9 2 2v4.13zm-10 0c0 1.1-.9 2-2 2h-4.13c-1.1 0-2-.9-2-2v-4.13c0-1.1.9-2 2-2H215c1.1 0 2 .9 2 2v4.13zm-10 0c0 1.1-.9 2-2 2h-4.13c-1.1 0-2-.9-2-2v-4.13c0-1.1.9-2 2-2H205c1.1 0 2 .9 2 2v4.13zm-10 0c0 1.1-.9 2-2 2h-4.13c-1.1 0-2-.9-2-2v-4.13c0-1.1.9-2 2-2H195c1.1 0 2 .9 2 2v4.13zm-10 0c0 1.1-.9 2-2 2h-4.13c-1.1 0-2-.9-2-2v-4.13c0-1.1.9-2 2-2H185c1.1 0 2 .9 2 2v4.13zm-10 0c0 1.1-.9 2-2 2h-4.13c-1.1 0-2-.9-2-2v-4.13c0-1.1.9-2 2-2H175c1.1 0 2 .9 2 2v4.13zm-10 0c0 1.1-.9 2-2 2h-4.13c-1.1 0-2-.9-2-2v-4.13c0-1.1.9-2 2-2H165c1.1 0 2 .9 2 2v4.13zm-10 0c0 1.1-.9 2-2 2h-4.13c-1.1 0-2-.9-2-2v-4.13c0-1.1.9-2 2-2H155c1.1 0 2 .9 2 2v4.13zm-10 0c0 1.1-.9 2-2 2h-4.13c-1.1 0-2-.9-2-2v-4.13c0-1.1.9-2 2-2H145c1.1 0 2 .9 2 2v4.13zm-10 0c0 1.1-.9 2-2 2h-4.13c-1.1 0-2-.9-2-2v-4.13c0-1.1.9-2 2-2H135c1.1 0 2 .9 2 2v4.13zm-10 0c0 1.1-.9 2-2 2h-4.13c-1.1 0-2-.9-2-2v-4.13c0-1.1.9-2 2-2H125c1.1 0 2 .9 2 2v4.13zm-10 0c0 1.1-.9 2-2 2h-4.13c-1.1 0-2-.9-2-2v-4.13c0-1.1.9-2 2-2H115c1.1 0 2 .9 2 2v4.13zm-10 0c0 1.1-.9 2-2 2h-4.13c-1.1 0-2-.9-2-2v-4.13c0-1.1.9-2 2-2H105c1.1 0 2 .9 2 2v4.13zm190 10c0 1.1-.9 2-2 2h-4.13c-1.1 0-2-.9-2-2v-4.13c0-1.1.9-2 2-2H295c1.1 0 2 .9 2 2v4.13zm-10 0c0 1.1-.9 2-2 2h-4.13c-1.1 0-2-.9-2-2v-4.13c0-1.1.9-2 2-2H285c1.1 0 2 .9 2 2v4.13zm-10 0c0 1.1-.9 2-2 2h-4.13c-1.1 0-2-.9-2-2v-4.13c0-1.1.9-2 2-2H275c1.1 0 2 .9 2 2v4.13zm-10 0c0 1.1-.9 2-2 2h-4.13c-1.1 0-2-.9-2-2v-4.13c0-1.1.9-2 2-2H265c1.1 0 2 .9 2 2v4.13zm-10 0c0 1.1-.9 2-2 2h-4.13c-1.1 0-2-.9-2-2v-4.13c0-1.1.9-2 2-2H255c1.1 0 2 .9 2 2v4.13zm-10 0c0 1.1-.9 2-2 2h-4.13c-1.1 0-2-.9-2-2v-4.13c0-1.1.9-2 2-2H245c1.1 0 2 .9 2 2v4.13zm-10 0c0 1.1-.9 2-2 2h-4.13c-1.1 0-2-.9-2-2v-4.13c0-1.1.9-2 2-2H235c1.1 0 2 .9 2 2v4.13zm-10 0c0 1.1-.9 2-2 2h-4.13c-1.1 0-2-.9-2-2v-4.13c0-1.1.9-2 2-2H225c1.1 0 2 .9 2 2v4.13zm-10 0c0 1.1-.9 2-2 2h-4.13c-1.1 0-2-.9-2-2v-4.13c0-1.1.9-2 2-2H215c1.1 0 2 .9 2 2v4.13zm-10 0c0 1.1-.9 2-2 2h-4.13c-1.1 0-2-.9-2-2v-4.13c0-1.1.9-2 2-2H205c1.1 0 2 .9 2 2v4.13zm-10 0c0 1.1-.9 2-2 2h-4.13c-1.1 0-2-.9-2-2v-4.13c0-1.1.9-2 2-2H195c1.1 0 2 .9 2 2v4.13zm-10 0c0 1.1-.9 2-2 2h-4.13c-1.1 0-2-.9-2-2v-4.13c0-1.1.9-2 2-2H185c1.1 0 2 .9 2 2v4.13zm-10 0c0 1.1-.9 2-2 2h-4.13c-1.1 0-2-.9-2-2v-4.13c0-1.1.9-2 2-2H175c1.1 0 2 .9 2 2v4.13zm-10 0c0 1.1-.9 2-2 2h-4.13c-1.1 0-2-.9-2-2v-4.13c0-1.1.9-2 2-2H165c1.1 0 2 .9 2 2v4.13zm-10 0c0 1.1-.9 2-2 2h-4.13c-1.1 0-2-.9-2-2v-4.13c0-1.1.9-2 2-2H155c1.1 0 2 .9 2 2v4.13zm-10 0c0 1.1-.9 2-2 2h-4.13c-1.1 0-2-.9-2-2v-4.13c0-1.1.9-2 2-2H145c1.1 0 2 .9 2 2v4.13zm-10 0c0 1.1-.9 2-2 2h-4.13c-1.1 0-2-.9-2-2v-4.13c0-1.1.9-2 2-2H135c1.1 0 2 .9 2 2v4.13zm-10 0c0 1.1-.9 2-2 2h-4.13c-1.1 0-2-.9-2-2v-4.13c0-1.1.9-2 2-2H125c1.1 0 2 .9 2 2v4.13zm-10 0c0 1.1-.9 2-2 2h-4.13c-1.1 0-2-.9-2-2v-4.13c0-1.1.9-2 2-2H115c1.1 0 2 .9 2 2v4.13zm-10 0c0 1.1-.9 2-2 2h-4.13c-1.1 0-2-.9-2-2v-4.13c0-1.1.9-2 2-2H105c1.1 0 2 .9 2 2v4.13zm190 48c0 1.1-.9 2-2 2h-4.13c-1.1 0-2-.9-2-2v-4.13c0-1.1.9-2 2-2H295c1.1 0 2 .9 2 2v4.13zm-10 0c0 1.1-.9 2-2 2h-4.13c-1.1 0-2-.9-2-2v-4.13c0-1.1.9-2 2-2H285c1.1 0 2 .9 2 2v4.13zm-109.02-35c0 1.1-.9 2-2 2h-4.13c-1.1 0-2-.9-2-2v-4.13c0-1.1.9-2 2-2h4.13c1.1 0 2 .9 2 2v4.13zm89.02 35c0 1.1-.9 2-2 2h-4.13c-1.1 0-2-.9-2-2v-4.13c0-1.1.9-2 2-2H265c1.1 0 2 .9 2 2v4.13zm-10 0c0 1.1-.9 2-2 2h-4.13c-1.1 0-2-.9-2-2v-4.13c0-1.1.9-2 2-2H255c1.1 0 2 .9 2 2v4.13zm-10 0c0 1.1-.9 2-2 2h-4.13c-1.1 0-2-.9-2-2v-4.13c0-1.1.9-2 2-2H245c1.1 0 2 .9 2 2v4.13zm-10 0c0 1.1-.9 2-2 2h-4.13c-1.1 0-2-.9-2-2v-4.13c0-1.1.9-2 2-2H235c1.1 0 2 .9 2 2v4.13zm-10 0c0 1.1-.9 2-2 2h-4.13c-1.1 0-2-.9-2-2v-4.13c0-1.1.9-2 2-2H225c1.1 0 2 .9 2 2v4.13zm-10 0c0 1.1-.9 2-2 2h-4.13c-1.1 0-2-.9-2-2v-4.13c0-1.1.9-2 2-2H215c1.1 0 2 .9 2 2v4.13zm-10 0c0 1.1-.9 2-2 2h-4.13c-1.1 0-2-.9-2-2v-4.13c0-1.1.9-2 2-2H205c1.1 0 2 .9 2 2v4.13zm-10 0c0 1.1-.9 2-2 2h-4.13c-1.1 0-2-.9-2-2v-4.13c0-1.1.9-2 2-2H195c1.1 0 2 .9 2 2v4.13zm-10 0c0 1.1-.9 2-2 2h-4.13c-1.1 0-2-.9-2-2v-4.13c0-1.1.9-2 2-2H185c1.1 0 2 .9 2 2v4.13zm-10 0c0 1.1-.9 2-2 2h-4.13c-1.1 0-2-.9-2-2v-4.13c0-1.1.9-2 2-2H175c1.1 0 2 .9 2 2v4.13zm-10 0c0 1.1-.9 2-2 2h-4.13c-1.1 0-2-.9-2-2v-4.13c0-1.1.9-2 2-2H165c1.1 0 2 .9 2 2v4.13zm-10 0c0 1.1-.9 2-2 2h-4.13c-1.1 0-2-.9-2-2v-4.13c0-1.1.9-2 2-2H155c1.1 0 2 .9 2 2v4.13zm-10 0c0 1.1-.9 2-2 2h-4.13c-1.1 0-2-.9-2-2v-4.13c0-1.1.9-2 2-2H145c1.1 0 2 .9 2 2v4.13zm-10 0c0 1.1-.9 2-2 2h-4.13c-1.1 0-2-.9-2-2v-4.13c0-1.1.9-2 2-2H135c1.1 0 2 .9 2 2v4.13zm-10 0c0 1.1-.9 2-2 2h-4.13c-1.1 0-2-.9-2-2v-4.13c0-1.1.9-2 2-2H125c1.1 0 2 .9 2 2v4.13zm-10 0c0 1.1-.9 2-2 2h-4.13c-1.1 0-2-.9-2-2v-4.13c0-1.1.9-2 2-2H115c1.1 0 2 .9 2 2v4.13zm-10 0c0 1.1-.9 2-2 2h-4.13c-1.1 0-2-.9-2-2v-4.13c0-1.1.9-2 2-2H105c1.1 0 2 .9 2 2v4.13zm190-10c0 1.1-.9 2-2 2h-4.13c-1.1 0-2-.9-2-2v-4.13c0-1.1.9-2 2-2H295c1.1 0 2 .9 2 2v4.13zm-10 0c0 1.1-.9 2-2 2h-4.13c-1.1 0-2-.9-2-2v-4.13c0-1.1.9-2 2-2H285c1.1 0 2 .9 2 2v4.13zm-10 0c0 1.1-.9 2-2 2h-4.13c-1.1 0-2-.9-2-2v-4.13c0-1.1.9-2 2-2H275c1.1 0 2 .9 2 2v4.13zm-10 0c0 1.1-.9 2-2 2h-4.13c-1.1 0-2-.9-2-2v-4.13c0-1.1.9-2 2-2H265c1.1 0 2 .9 2 2v4.13zm-10 0c0 1.1-.9 2-2 2h-4.13c-1.1 0-2-.9-2-2v-4.13c0-1.1.9-2 2-2H255c1.1 0 2 .9 2 2v4.13zm-10 0c0 1.1-.9 2-2 2h-4.13c-1.1 0-2-.9-2-2v-4.13c0-1.1.9-2 2-2H245c1.1 0 2 .9 2 2v4.13zm-10 0c0 1.1-.9 2-2 2h-4.13c-1.1 0-2-.9-2-2v-4.13c0-1.1.9-2 2-2H235c1.1 0 2 .9 2 2v4.13zm-10 0c0 1.1-.9 2-2 2h-4.13c-1.1 0-2-.9-2-2v-4.13c0-1.1.9-2 2-2H225c1.1 0 2 .9 2 2v4.13zm-111.67-14c0 1.1-.9 2-2 2h-4.12c-1.1 0-2-.9-2-2v-4.13c0-1.1.9-2 2-2h4.16c1.1 0 2 .9 2 2v4.13zm91.67 14c0 1.1-.9 2-2 2h-4.13c-1.1 0-2-.9-2-2v-4.13c0-1.1.9-2 2-2H205c1.1 0 2 .9 2 2v4.13zm-10 0c0 1.1-.9 2-2 2h-4.13c-1.1 0-2-.9-2-2v-4.13c0-1.1.9-2 2-2H195c1.1 0 2 .9 2 2v4.13zm-10 0c0 1.1-.9 2-2 2h-4.13c-1.1 0-2-.9-2-2v-4.13c0-1.1.9-2 2-2H185c1.1 0 2 .9 2 2v4.13zm-10 0c0 1.1-.9 2-2 2h-4.13c-1.1 0-2-.9-2-2v-4.13c0-1.1.9-2 2-2H175c1.1 0 2 .9 2 2v4.13zm-10 0c0 1.1-.9 2-2 2h-4.13c-1.1 0-2-.9-2-2v-4.13c0-1.1.9-2 2-2H165c1.1 0 2 .9 2 2v4.13zm-10 0c0 1.1-.9 2-2 2h-4.13c-1.1 0-2-.9-2-2v-4.13c0-1.1.9-2 2-2H155c1.1 0 2 .9 2 2v4.13zm-10 0c0 1.1-.9 2-2 2h-4.13c-1.1 0-2-.9-2-2v-4.13c0-1.1.9-2 2-2H145c1.1 0 2 .9 2 2v4.13zm-10 0c0 1.1-.9 2-2 2h-4.13c-1.1 0-2-.9-2-2v-4.13c0-1.1.9-2 2-2H135c1.1 0 2 .9 2 2v4.13zm-10 0c0 1.1-.9 2-2 2h-4.13c-1.1 0-2-.9-2-2v-4.13c0-1.1.9-2 2-2H125c1.1 0 2 .9 2 2v4.13zm-10 0c0 1.1-.9 2-2 2h-4.13c-1.1 0-2-.9-2-2v-4.13c0-1.1.9-2 2-2H115c1.1 0 2 .9 2 2v4.13zm-10 0c0 1.1-.9 2-2 2h-4.13c-1.1 0-2-.9-2-2v-4.13c0-1.1.9-2 2-2H105c1.1 0 2 .9 2 2v4.13zm190-98c0 1.1-.9 2-2 2h-4.13c-1.1 0-2-.9-2-2v-4.13c0-1.1.9-2 2-2H295c1.1 0 2 .9 2 2v4.13zm-10 0c0 1.1-.9 2-2 2h-4.13c-1.1 0-2-.9-2-2v-4.13c0-1.1.9-2 2-2H285c1.1 0 2 .9 2 2v4.13zm-10 0c0 1.1-.9 2-2 2h-4.13c-1.1 0-2-.9-2-2v-4.13c0-1.1.9-2 2-2H275c1.1 0 2 .9 2 2v4.13zm-10 0c0 1.1-.9 2-2 2h-4.13c-1.1 0-2-.9-2-2v-4.13c0-1.1.9-2 2-2H265c1.1 0 2 .9 2 2v4.13zm-10 0c0 1.1-.9 2-2 2h-4.13c-1.1 0-2-.9-2-2v-4.13c0-1.1.9-2 2-2H255c1.1 0 2 .9 2 2v4.13zm-10 0c0 1.1-.9 2-2 2h-4.13c-1.1 0-2-.9-2-2v-4.13c0-1.1.9-2 2-2H245c1.1 0 2 .9 2 2v4.13zM57.73 57.73c0 1.1-.9 2-2 2H51.6c-1.1 0-2-.9-2-2V53.6c0-1.1.9-2 2-2h4.13c1.1 0 2 .9 2 2v4.13zM227 67.67c0 1.1-.9 2-2 2h-4.13c-1.1 0-2-.9-2-2v-4.13c0-1.1.9-2 2-2H225c1.1 0 2 .9 2 2v4.13zm-10 0c0 1.1-.9 2-2 2h-4.13c-1.1 0-2-.9-2-2v-4.13c0-1.1.9-2 2-2H215c1.1 0 2 .9 2 2v4.13zm-10 0c0 1.1-.9 2-2 2h-4.13c-1.1 0-2-.9-2-2v-4.13c0-1.1.9-2 2-2H205c1.1 0 2 .9 2 2v4.13zm-10 0c0 1.1-.9 2-2 2h-4.13c-1.1 0-2-.9-2-2v-4.13c0-1.1.9-2 2-2H195c1.1 0 2 .9 2 2v4.13zm-10 0c0 1.1-.9 2-2 2h-4.13c-1.1 0-2-.9-2-2v-4.13c0-1.1.9-2 2-2H185c1.1 0 2 .9 2 2v4.13zm-10 0c0 1.1-.9 2-2 2h-4.13c-1.1 0-2-.9-2-2v-4.13c0-1.1.9-2 2-2H175c1.1 0 2 .9 2 2v4.13zm-10 0c0 1.1-.9 2-2 2h-4.13c-1.1 0-2-.9-2-2v-4.13c0-1.1.9-2 2-2H165c1.1 0 2 .9 2 2v4.13zm-10 0c0 1.1-.9 2-2 2h-4.13c-1.1 0-2-.9-2-2v-4.13c0-1.1.9-2 2-2H155c1.1 0 2 .9 2 2v4.13zm-10 0c0 1.1-.9 2-2 2h-4.13c-1.1 0-2-.9-2-2v-4.13c0-1.1.9-2 2-2H145c1.1 0 2 .9 2 2v4.13zm-10 0c0 1.1-.9 2-2 2h-4.13c-1.1 0-2-.9-2-2v-4.13c0-1.1.9-2 2-2H135c1.1 0 2 .9 2 2v4.13zm-10 0c0 1.1-.9 2-2 2h-4.13c-1.1 0-2-.9-2-2v-4.13c0-1.1.9-2 2-2H125c1.1 0 2 .9 2 2v4.13zm-10 0c0 1.1-.9 2-2 2h-4.13c-1.1 0-2-.9-2-2v-4.13c0-1.1.9-2 2-2H115c1.1 0 2 .9 2 2v4.13zm-10 0c0 1.1-.9 2-2 2h-4.13c-1.1 0-2-.9-2-2v-4.13c0-1.1.9-2 2-2H105c1.1 0 2 .9 2 2v4.13zm190 10c0 1.1-.9 2-2 2h-4.13c-1.1 0-2-.9-2-2v-4.13c0-1.1.9-2 2-2H295c1.1 0 2 .9 2 2v4.13zm-10 0c0 1.1-.9 2-2 2h-4.13c-1.1 0-2-.9-2-2v-4.13c0-1.1.9-2 2-2H285c1.1 0 2 .9 2 2v4.13zm-10 0c0 1.1-.9 2-2 2h-4.13c-1.1 0-2-.9-2-2v-4.13c0-1.1.9-2 2-2H275c1.1 0 2 .9 2 2v4.13zm-10 0c0 1.1-.9 2-2 2h-4.13c-1.1 0-2-.9-2-2v-4.13c0-1.1.9-2 2-2H265c1.1 0 2 .9 2 2v4.13zm-10 0c0 1.1-.9 2-2 2h-4.13c-1.1 0-2-.9-2-2v-4.13c0-1.1.9-2 2-2H255c1.1 0 2 .9 2 2v4.13zm-10 0c0 1.1-.9 2-2 2h-4.13c-1.1 0-2-.9-2-2v-4.13c0-1.1.9-2 2-2H245c1.1 0 2 .9 2 2v4.13zm-10 0c0 1.1-.9 2-2 2h-4.13c-1.1 0-2-.9-2-2v-4.13c0-1.1.9-2 2-2H235c1.1 0 2 .9 2 2v4.13zm-10 0c0 1.1-.9 2-2 2h-4.13c-1.1 0-2-.9-2-2v-4.13c0-1.1.9-2 2-2H225c1.1 0 2 .9 2 2v4.13zm-10 0c0 1.1-.9 2-2 2h-4.13c-1.1 0-2-.9-2-2v-4.13c0-1.1.9-2 2-2H215c1.1 0 2 .9 2 2v4.13zm-10 0c0 1.1-.9 2-2 2h-4.13c-1.1 0-2-.9-2-2v-4.13c0-1.1.9-2 2-2H205c1.1 0 2 .9 2 2v4.13zm-10 0c0 1.1-.9 2-2 2h-4.13c-1.1 0-2-.9-2-2v-4.13c0-1.1.9-2 2-2H195c1.1 0 2 .9 2 2v4.13zm-10 0c0 1.1-.9 2-2 2h-4.13c-1.1 0-2-.9-2-2v-4.13c0-1.1.9-2 2-2H185c1.1 0 2 .9 2 2v4.13zm-10 0c0 1.1-.9 2-2 2h-4.13c-1.1 0-2-.9-2-2v-4.13c0-1.1.9-2 2-2H175c1.1 0 2 .9 2 2v4.13zm-10 0c0 1.1-.9 2-2 2h-4.13c-1.1 0-2-.9-2-2v-4.13c0-1.1.9-2 2-2H165c1.1 0 2 .9 2 2v4.13zm-10 0c0 1.1-.9 2-2 2h-4.13c-1.1 0-2-.9-2-2v-4.13c0-1.1.9-2 2-2H155c1.1 0 2 .9 2 2v4.13zm-10 0c0 1.1-.9 2-2 2h-4.13c-1.1 0-2-.9-2-2v-4.13c0-1.1.9-2 2-2H145c1.1 0 2 .9 2 2v4.13zm-10 0c0 1.1-.9 2-2 2h-4.13c-1.1 0-2-.9-2-2v-4.13c0-1.1.9-2 2-2H135c1.1 0 2 .9 2 2v4.13zm-10 0c0 1.1-.9 2-2 2h-4.13c-1.1 0-2-.9-2-2v-4.13c0-1.1.9-2 2-2H125c1.1 0 2 .9 2 2v4.13zm-35.94 29.97c0 1.1-.9 2-2 2h-4.12c-1.1 0-2-.9-2-2v-4.13c0-1.1.9-2 2-2h4.12c1.1 0 2 .9 2 2v4.17zM107 77.67c0 1.1-.9 2-2 2h-4.13c-1.1 0-2-.9-2-2v-4.13c0-1.1.9-2 2-2H105c1.1 0 2 .9 2 2v4.13zm220 137.9c0 1.1-.9 2-2 2h-4c-1.1 0-2-.9-2-2v-3.9c0-1.1.9-2 2-2h4c1.1 0 2 .9 2 2v3.9zm-10 0c0 1.1-.9 2-2 2h-4c-1.1 0-2-.9-2-2v-3.9c0-1.1.9-2 2-2h4c1.1 0 2 .9 2 2v3.9zm-10 0c0 1.1-.9 2-2 2h-4c-1.1 0-2-.9-2-2v-3.9c0-1.1.9-2 2-2h4c1.1 0 2 .9 2 2v3.9zm-325.33 0c0 1.1-.9 2-2 2h-4c-1.1 0-2-.9-2-2v-3.9c0-1.1.9-2 2-2h4c1.1 0 2 .9 2 2v3.9zm305.33 0c0 1.1-.9 2-2 2h-4c-1.1 0-2-.9-2-2v-3.9c0-1.1.9-2 2-2h4c1.1 0 2 .9 2 2v3.9zm-10 0c0 1.1-.9 2-2 2h-4c-1.1 0-2-.9-2-2v-3.9c0-1.1.9-2 2-2h4c1.1 0 2 .9 2 2v3.9zm-10 0c0 1.1-.9 2-2 2h-4c-1.1 0-2-.9-2-2v-3.9c0-1.1.9-2 2-2h4c1.1 0 2 .9 2 2v3.9zm-10 0c0 1.1-.9 2-2 2h-4c-1.1 0-2-.9-2-2v-3.9c0-1.1.9-2 2-2h4c1.1 0 2 .9 2 2v3.9zm-10 0c0 1.1-.9 2-2 2h-4c-1.1 0-2-.9-2-2v-3.9c0-1.1.9-2 2-2h4c1.1 0 2 .9 2 2v3.9zm-10 0c0 1.1-.9 2-2 2h-4c-1.1 0-2-.9-2-2v-3.9c0-1.1.9-2 2-2h4c1.1 0 2 .9 2 2v3.9zm-10 0c0 1.1-.9 2-2 2h-4c-1.1 0-2-.9-2-2v-3.9c0-1.1.9-2 2-2h4c1.1 0 2 .9 2 2v3.9zm-10 0c0 1.1-.9 2-2 2h-4c-1.1 0-2-.9-2-2v-3.9c0-1.1.9-2 2-2h4c1.1 0 2 .9 2 2v3.9zm-10 0c0 1.1-.9 2-2 2h-4c-1.1 0-2-.9-2-2v-3.9c0-1.1.9-2 2-2h4c1.1 0 2 .9 2 2v3.9zm-10 0c0 1.1-.9 2-2 2h-4c-1.1 0-2-.9-2-2v-3.9c0-1.1.9-2 2-2h4c1.1 0 2 .9 2 2v3.9zm-10 0c0 1.1-.9 2-2 2h-4c-1.1 0-2-.9-2-2v-3.9c0-1.1.9-2 2-2h4c1.1 0 2 .9 2 2v3.9zm-10 0c0 1.1-.9 2-2 2h-4c-1.1 0-2-.9-2-2v-3.9c0-1.1.9-2 2-2h4c1.1 0 2 .9 2 2v3.9zm-132.67-99c0 1.1-.9 2-2 2h-4c-1.1 0-2-.9-2-2v-3.9c0-1.1.9-2 2-2h4c1.1 0 2 .9 2 2v3.9zm112.67 99c0 1.1-.9 2-2 2h-4c-1.1 0-2-.9-2-2v-3.9c0-1.1.9-2 2-2h4c1.1 0 2 .9 2 2v3.9zm-10 0c0 1.1-.9 2-2 2h-4c-1.1 0-2-.9-2-2v-3.9c0-1.1.9-2 2-2h4c1.1 0 2 .9 2 2v3.9zm-10 0c0 1.1-.9 2-2 2h-4c-1.1 0-2-.9-2-2v-3.9c0-1.1.9-2 2-2h4c1.1 0 2 .9 2 2v3.9zm-10 0c0 1.1-.9 2-2 2h-4c-1.1 0-2-.9-2-2v-3.9c0-1.1.9-2 2-2h4c1.1 0 2 .9 2 2v3.9zm-10 0c0 1.1-.9 2-2 2h-4c-1.1 0-2-.9-2-2v-3.9c0-1.1.9-2 2-2h4c1.1 0 2 .9 2 2v3.9zm-80.67 10c0 1.1-.9 2-2 2h-4c-1.1 0-2-.9-2-2v-3.9c0-1.1.9-2 2-2h4c1.1 0 2 .9 2 2v3.9zm60.67-10c0 1.1-.9 2-2 2h-4c-1.1 0-2-.9-2-2v-3.9c0-1.1.9-2 2-2h4c1.1 0 2 .9 2 2v3.9zm-10 0c0 1.1-.9 2-2 2h-4c-1.1 0-2-.9-2-2v-3.9c0-1.1.9-2 2-2h4c1.1 0 2 .9 2 2v3.9zm240 10c0 1.1-.9 2-2 2h-4c-1.1 0-2-.9-2-2v-3.9c0-1.1.9-2 2-2h4c1.1 0 2 .9 2 2v3.9zm-10 0c0 1.1-.9 2-2 2h-4c-1.1 0-2-.9-2-2v-3.9c0-1.1.9-2 2-2h4c1.1 0 2 .9 2 2v3.9zm-10 0c0 1.1-.9 2-2 2h-4c-1.1 0-2-.9-2-2v-3.9c0-1.1.9-2 2-2h4c1.1 0 2 .9 2 2v3.9zm-10 0c0 1.1-.9 2-2 2h-4c-1.1 0-2-.9-2-2v-3.9c0-1.1.9-2 2-2h4c1.1 0 2 .9 2 2v3.9zm-10 0c0 1.1-.9 2-2 2h-4c-1.1 0-2-.9-2-2v-3.9c0-1.1.9-2 2-2h4c1.1 0 2 .9 2 2v3.9zm-10 0c0 1.1-.9 2-2 2h-4c-1.1 0-2-.9-2-2v-3.9c0-1.1.9-2 2-2h4c1.1 0 2 .9 2 2v3.9zm-10 0c0 1.1-.9 2-2 2h-4c-1.1 0-2-.9-2-2v-3.9c0-1.1.9-2 2-2h4c1.1 0 2 .9 2 2v3.9zm-10 0c0 1.1-.9 2-2 2h-4c-1.1 0-2-.9-2-2v-3.9c0-1.1.9-2 2-2h4c1.1 0 2 .9 2 2v3.9zm-10 0c0 1.1-.9 2-2 2h-4c-1.1 0-2-.9-2-2v-3.9c0-1.1.9-2 2-2h4c1.1 0 2 .9 2 2v3.9zm-10 0c0 1.1-.9 2-2 2h-4c-1.1 0-2-.9-2-2v-3.9c0-1.1.9-2 2-2h4c1.1 0 2 .9 2 2v3.9zm-10 0c0 1.1-.9 2-2 2h-4c-1.1 0-2-.9-2-2v-3.9c0-1.1.9-2 2-2h4c1.1 0 2 .9 2 2v3.9zm-10 0c0 1.1-.9 2-2 2h-4c-1.1 0-2-.9-2-2v-3.9c0-1.1.9-2 2-2h4c1.1 0 2 .9 2 2v3.9zm-10 0c0 1.1-.9 2-2 2h-4c-1.1 0-2-.9-2-2v-3.9c0-1.1.9-2 2-2h4c1.1 0 2 .9 2 2v3.9zm-10 0c0 1.1-.9 2-2 2h-4c-1.1 0-2-.9-2-2v-3.9c0-1.1.9-2 2-2h4c1.1 0 2 .9 2 2v3.9zm-10 0c0 1.1-.9 2-2 2h-4c-1.1 0-2-.9-2-2v-3.9c0-1.1.9-2 2-2h4c1.1 0 2 .9 2 2v3.9zm-10 0c0 1.1-.9 2-2 2h-4c-1.1 0-2-.9-2-2v-3.9c0-1.1.9-2 2-2h4c1.1 0 2 .9 2 2v3.9zm-10 0c0 1.1-.9 2-2 2h-4c-1.1 0-2-.9-2-2v-3.9c0-1.1.9-2 2-2h4c1.1 0 2 .9 2 2v3.9zM86.04 87.6c0 1.1-.9 2-2 2h-4c-1.1 0-2-.9-2-2v-3.92c0-1.1.9-2 2-2h4c1.1 0 2 .9 2 2v3.9zM147 225.58c0 1.1-.9 2-2 2h-4c-1.1 0-2-.9-2-2v-3.9c0-1.1.9-2 2-2h4c1.1 0 2 .9 2 2v3.9zm-10 0c0 1.1-.9 2-2 2h-4c-1.1 0-2-.9-2-2v-3.9c0-1.1.9-2 2-2h4c1.1 0 2 .9 2 2v3.9zm-10 0c0 1.1-.9 2-2 2h-4c-1.1 0-2-.9-2-2v-3.9c0-1.1.9-2 2-2h4c1.1 0 2 .9 2 2v3.9zm-10 0c0 1.1-.9 2-2 2h-4c-1.1 0-2-.9-2-2v-3.9c0-1.1.9-2 2-2h4c1.1 0 2 .9 2 2v3.9zm-10 0c0 1.1-.9 2-2 2h-4c-1.1 0-2-.9-2-2v-3.9c0-1.1.9-2 2-2h4c1.1 0 2 .9 2 2v3.9zm-10 0c0 1.1-.9 2-2 2h-4c-1.1 0-2-.9-2-2v-3.9c0-1.1.9-2 2-2h4c1.1 0 2 .9 2 2v3.9zm-10 0c0 1.1-.9 2-2 2h-4c-1.1 0-2-.9-2-2v-3.9c0-1.1.9-2 2-2h4c1.1 0 2 .9 2 2v3.9zm40 19.1c0 1.1-.9 2-2 2h-4.13c-1.1 0-2-.9-2-2v-4c0-1.1.9-2 2-2H125c1.1 0 2 .9 2 2v4zm-10 0c0 1.1-.9 2-2 2h-4.13c-1.1 0-2-.9-2-2v-4c0-1.1.9-2 2-2H115c1.1 0 2 .9 2 2v4zm-10 0c0 1.1-.9 2-2 2h-4.13c-1.1 0-2-.9-2-2v-4c0-1.1.9-2 2-2H105c1.1 0 2 .9 2 2v4zm195 0c0 1.1-.9 2-2 2h-4.13c-1.1 0-2-.9-2-2v-4c0-1.1.9-2 2-2H300c1.1 0 2 .9 2 2v4zm-10 0c0 1.1-.9 2-2 2h-4.13c-1.1 0-2-.9-2-2v-4c0-1.1.9-2 2-2H290c1.1 0 2 .9 2 2v4zm-10 0c0 1.1-.9 2-2 2h-4.13c-1.1 0-2-.9-2-2v-4c0-1.1.9-2 2-2H280c1.1 0 2 .9 2 2v4zm-90 0c0 1.1-.9 2-2 2h-4.08c-1.1 0-2-.9-2-2v-4c0-1.1.9-2 2-2H190c1.1 0 2 .9 2 2v4zm-10 0c0 1.1-.9 2-2 2h-4.08c-1.1 0-2-.9-2-2v-4c0-1.1.9-2 2-2H180c1.1 0 2 .9 2 2v4zm19.92 10c0 1.1-.9 2-2 2h-4.1c-1.1 0-2-.9-2-2v-4c0-1.1.9-2 2-2h4.1c1.1 0 2 .9 2 2v4zm-10 0c0 1.1-.9 2-2 2h-4.1c-1.1 0-2-.9-2-2v-4c0-1.1.9-2 2-2h4.1c1.1 0 2 .9 2 2v4zm50.08-10c0 1.1-.9 2-2 2h-4.08c-1.1 0-2-.9-2-2v-4c0-1.1.9-2 2-2H240c1.1 0 2 .9 2 2v4zm-10 0c0 1.1-.9 2-2 2h-4.08c-1.1 0-2-.9-2-2v-4c0-1.1.9-2 2-2H230c1.1 0 2 .9 2 2v4zm19.92 10c0 1.1-.9 2-2 2h-4.1c-1.1 0-2-.9-2-2v-4c0-1.1.9-2 2-2h4.1c1.1 0 2 .9 2 2v4zm-10 0c0 1.1-.9 2-2 2h-4.1c-1.1 0-2-.9-2-2v-4c0-1.1.9-2 2-2h4.1c1.1 0 2 .9 2 2v4z"/>
  <path fill="#141006" d="M201.92 254.67c0 1.1-.9 2-2 2h-4.1c-1.1 0-2-.9-2-2v-4c0-1.1.9-2 2-2h4.1c1.1 0 2 .9 2 2v4zm-10 0c0 1.1-.9 2-2 2h-4.1c-1.1 0-2-.9-2-2v-4c0-1.1.9-2 2-2h4.1c1.1 0 2 .9 2 2v4zm110.75 1c0 1.1-.9 2-2 2h-4.1c-1.1 0-2-.9-2-2v-4c0-1.1.9-2 2-2h4.1c1.1 0 2 .9 2 2v4zm-10 0c0 1.1-.9 2-2 2h-4.1c-1.1 0-2-.9-2-2v-4c0-1.1.9-2 2-2h4.1c1.1 0 2 .9 2 2v4zm19.9 10c0 1.1-.9 2-2 2h-4.07c-1.1 0-2-.9-2-2v-4c0-1.1.9-2 2-2h4.08c1.1 0 2 .9 2 2v4zm-10 0c0 1.1-.9 2-2 2h-4.07c-1.1 0-2-.9-2-2v-4c0-1.1.9-2 2-2h4.08c1.1 0 2 .9 2 2v4z"/>
  <path fill="#141006" d="M312.58 265.67c0 1.1-.9 2-2 2h-4.08c-1.1 0-2-.9-2-2v-4c0-1.1.9-2 2-2h4.08c1.1 0 2 .9 2 2v4zm-10 0c0 1.1-.9 2-2 2h-4.08c-1.1 0-2-.9-2-2v-4c0-1.1.9-2 2-2h4.08c1.1 0 2 .9 2 2v4zm-210.54-1c0 1.1-.9 2-2 2h-4.08c-1.1 0-2-.9-2-2v-4c0-1.1.9-2 2-2h4.08c1.1 0 2 .9 2 2v4zm-10 0c0 1.1-.9 2-2 2h-4.08c-1.1 0-2-.9-2-2v-4c0-1.1.9-2 2-2h4.08c1.1 0 2 .9 2 2v4zm34.96-227c0 1.1-.9 2-2 2h-4.13c-1.1 0-2-.9-2-2v-4c0-1.1.9-2 2-2H115c1.1 0 2 .9 2 2v4zm-10 0c0 1.1-.9 2-2 2h-4.13c-1.1 0-2-.9-2-2v-4c0-1.1.9-2 2-2H105c1.1 0 2 .9 2 2v4zm10 10c0 1.1-.9 2-2 2h-4.13c-1.1 0-2-.9-2-2v-4c0-1.1.9-2 2-2H115c1.1 0 2 .9 2 2v4zM17.06 27.6c0 1.1-.9 2-2 2h-4.12c-1.1 0-2-.9-2-2v-4c0-1.1.9-2 2-2h4.12c1.1 0 2 .9 2 2v4zm99.94 30c0 1.1-.9 2-2 2h-4.13c-1.1 0-2-.9-2-2v-4c0-1.1.9-2 2-2H115c1.1 0 2 .9 2 2v4zm-91.8 10c0 1.1-.9 2-2 2h-4.14c-1.1 0-2-.9-2-2v-4c0-1.1.9-2 2-2h4.13c1.1 0 2 .9 2 2v4zm65.86 10c0 1.1-.9 2-2 2h-4.12c-1.1 0-2-.9-2-2v-4c0-1.1.9-2 2-2h4.12c1.1 0 2 .9 2 2v4zm15.94 10c0 1.1-.9 2-2 2h-4.13c-1.1 0-2-.9-2-2v-4c0-1.1.9-2 2-2H105c1.1 0 2 .9 2 2v4zm10 10c0 1.1-.9 2-2 2h-4.13c-1.1 0-2-.9-2-2v-4c0-1.1.9-2 2-2H115c1.1 0 2 .9 2 2v4zm-10 0c0 1.1-.9 2-2 2h-4.13c-1.1 0-2-.9-2-2v-4c0-1.1.9-2 2-2H105c1.1 0 2 .9 2 2v4zm10 9.94c0 1.1-.9 2-2 2h-4.13c-1.1 0-2-.9-2-2v-4c0-1.1.9-2 2-2H115c1.1 0 2 .9 2 2v4zm-10 0c0 1.1-.9 2-2 2h-4.13c-1.1 0-2-.9-2-2v-4c0-1.1.9-2 2-2H105c1.1 0 2 .9 2 2v4zM207 37.7c0 1.1-.9 2-2 2h-4.13c-1.1 0-2-.9-2-2v-4c0-1.1.9-2 2-2H205c1.1 0 2 .9 2 2v4zm-10 0c0 1.1-.9 2-2 2h-4.13c-1.1 0-2-.9-2-2v-4c0-1.1.9-2 2-2H195c1.1 0 2 .9 2 2v4zm10 10c0 1.1-.9 2-2 2h-4.13c-1.1 0-2-.9-2-2v-4c0-1.1.9-2 2-2H205c1.1 0 2 .9 2 2v4zm-10 0c0 1.1-.9 2-2 2h-4.13c-1.1 0-2-.9-2-2v-4c0-1.1.9-2 2-2H195c1.1 0 2 .9 2 2v4zm10 9.93c0 1.1-.9 2-2 2h-4.13c-1.1 0-2-.9-2-2v-4c0-1.1.9-2 2-2H205c1.1 0 2 .9 2 2v4zm-10 0c0 1.1-.9 2-2 2h-4.13c-1.1 0-2-.9-2-2v-4c0-1.1.9-2 2-2H195c1.1 0 2 .9 2 2v4zm10 29.97c0 1.1-.9 2-2 2h-4.13c-1.1 0-2-.9-2-2v-4c0-1.1.9-2 2-2H205c1.1 0 2 .9 2 2v4zm-10 0c0 1.1-.9 2-2 2h-4.13c-1.1 0-2-.9-2-2v-4c0-1.1.9-2 2-2H195c1.1 0 2 .9 2 2v4zm10 10c0 1.1-.9 2-2 2h-4.13c-1.1 0-2-.9-2-2v-4c0-1.1.9-2 2-2H205c1.1 0 2 .9 2 2v4zm-10 0c0 1.1-.9 2-2 2h-4.13c-1.1 0-2-.9-2-2v-4c0-1.1.9-2 2-2H195c1.1 0 2 .9 2 2v4zm10 9.94c0 1.1-.9 2-2 2h-4.13c-1.1 0-2-.9-2-2v-4c0-1.1.9-2 2-2H205c1.1 0 2 .9 2 2v4zm-10 0c0 1.1-.9 2-2 2h-4.13c-1.1 0-2-.9-2-2v-4c0-1.1.9-2 2-2H195c1.1 0 2 .9 2 2v4zm10 29.06c0 1.1-.9 2-2 2h-4.13c-1.1 0-2-.9-2-2v-4c0-1.1.9-2 2-2H205c1.1 0 2 .9 2 2v4zm-10 0c0 1.1-.9 2-2 2h-4.13c-1.1 0-2-.9-2-2v-4c0-1.1.9-2 2-2H195c1.1 0 2 .9 2 2v4zm10 10c0 1.1-.9 2-2 2h-4.13c-1.1 0-2-.9-2-2v-4c0-1.1.9-2 2-2H205c1.1 0 2 .9 2 2v4zm-10 0c0 1.1-.9 2-2 2h-4.13c-1.1 0-2-.9-2-2v-4c0-1.1.9-2 2-2H195c1.1 0 2 .9 2 2v4zm10 9.94c0 1.1-.9 2-2 2h-4.13c-1.1 0-2-.9-2-2v-4c0-1.1.9-2 2-2H205c1.1 0 2 .9 2 2v4zm-10 0c0 1.1-.9 2-2 2h-4.13c-1.1 0-2-.9-2-2v-4c0-1.1.9-2 2-2H195c1.1 0 2 .9 2 2v4zm99.96-118.8c0 1.1-.9 2-2 2h-4.13c-1.1 0-2-.9-2-2v-4c0-1.1.9-2 2-2h4.13c1.1 0 2 .9 2 2v4zm-10 0c0 1.1-.9 2-2 2h-4.13c-1.1 0-2-.9-2-2v-4c0-1.1.9-2 2-2h4.13c1.1 0 2 .9 2 2v4zm10 10c0 1.1-.9 2-2 2h-4.13c-1.1 0-2-.9-2-2v-4c0-1.1.9-2 2-2h4.13c1.1 0 2 .9 2 2v4zm-10 0c0 1.1-.9 2-2 2h-4.13c-1.1 0-2-.9-2-2v-4c0-1.1.9-2 2-2h4.13c1.1 0 2 .9 2 2v4zm10 9.93c0 1.1-.9 2-2 2h-4.13c-1.1 0-2-.9-2-2v-4c0-1.1.9-2 2-2h4.13c1.1 0 2 .9 2 2v4zm-10 0c0 1.1-.9 2-2 2h-4.13c-1.1 0-2-.9-2-2v-4c0-1.1.9-2 2-2h4.13c1.1 0 2 .9 2 2v4zm10 29.97c0 1.1-.9 2-2 2h-4.13c-1.1 0-2-.9-2-2v-4c0-1.1.9-2 2-2h4.13c1.1 0 2 .9 2 2v4zm-10 0c0 1.1-.9 2-2 2h-4.13c-1.1 0-2-.9-2-2v-4c0-1.1.9-2 2-2h4.13c1.1 0 2 .9 2 2v4zm10 10c0 1.1-.9 2-2 2h-4.13c-1.1 0-2-.9-2-2v-4c0-1.1.9-2 2-2h4.13c1.1 0 2 .9 2 2v4zm-10 0c0 1.1-.9 2-2 2h-4.13c-1.1 0-2-.9-2-2v-4c0-1.1.9-2 2-2h4.13c1.1 0 2 .9 2 2v4zm10 9.93c0 1.1-.9 2-2 2h-4.13c-1.1 0-2-.9-2-2v-4c0-1.1.9-2 2-2h4.13c1.1 0 2 .9 2 2v4zm-10 0c0 1.1-.9 2-2 2h-4.13c-1.1 0-2-.9-2-2v-4c0-1.1.9-2 2-2h4.13c1.1 0 2 .9 2 2v4zM207 185.77c0 1.1-.9 2-2 2h-4.13c-1.1 0-2-.9-2-2v-4c0-1.1.9-2 2-2H205c1.1 0 2 .9 2 2v4zm-10 0c0 1.1-.9 2-2 2h-4.13c-1.1 0-2-.9-2-2v-4c0-1.1.9-2 2-2H195c1.1 0 2 .9 2 2v4zm10 10c0 1.1-.9 2-2 2h-4.13c-1.1 0-2-.9-2-2v-4c0-1.1.9-2 2-2H205c1.1 0 2 .9 2 2v4zm-10 0c0 1.1-.9 2-2 2h-4.13c-1.1 0-2-.9-2-2v-4c0-1.1.9-2 2-2H195c1.1 0 2 .9 2 2v4zm10 9.93c0 1.1-.9 2-2 2h-4.13c-1.1 0-2-.9-2-2v-4c0-1.1.9-2 2-2H205c1.1 0 2 .9 2 2v4zm-10 0c0 1.1-.9 2-2 2h-4.13c-1.1 0-2-.9-2-2v-4c0-1.1.9-2 2-2H195c1.1 0 2 .9 2 2v4zm-81.67 49.14c0 1.1-.9 2-2 2h-4.12c-1.1 0-2-.9-2-2v-4c0-1.1.9-2 2-2h4.16c1.1 0 2 .9 2 2v4zm-10 0c0 1.1-.9 2-2 2H99.2c-1.1 0-2-.9-2-2v-4c0-1.1.9-2 2-2h4.13c1.1 0 2 .9 2 2v4zm-10 0c0 1.1-.9 2-2 2H89.2c-1.1 0-2-.9-2-2v-4c0-1.1.9-2 2-2h4.13c1.1 0 2 .9 2 2v4z"/>
</svg>
